# 3ds Max Wavefront OBJ Exporter v0.97b - (c)2007 guruware
# File Created: 10.06.2021 01:27:17

mtllib asd.mtl

#
# object default
#

v  7.6923 -8.4898 4.5546
v  -7.6923 -8.4898 4.5546
v  -7.6923 -8.4898 0.0000
v  7.6923 -8.4898 -0.0000
v  -7.6923 7.2175 4.5546
v  -7.6923 9.3173 0.0000
v  7.6923 7.2175 4.5546
v  7.6923 9.3173 -0.0000
# 8 vertices

vn 0.5774 -0.5774 0.5773
vn -0.5774 -0.5774 0.5774
vn -0.7071 -0.7071 0.0000
vn 0.7071 -0.7071 -0.0000
vn -0.6035 0.4299 0.6715
vn -0.5870 0.7352 0.3390
vn 0.6035 0.4299 0.6715
vn 0.5870 0.7352 0.3390
# 8 vertex normals

vt 0.7072 0.9984 0.0000
vt 0.0223 0.9992 0.0000
vt 0.0226 0.9029 0.0000
vt 0.7277 0.9029 0.0000
vt 0.7690 0.0544 0.0000
vt 0.9778 0.0544 0.0000
vt 0.9748 0.8814 0.0000
vt 0.7661 0.9928 0.0000
vt 0.0218 0.0496 0.0000
vt 0.7269 0.0496 0.0000
# 10 texture coords

o default
g default
usemtl quadro_de_energia_default
s 1
f 1/1/1 2/2/2 3/3/3 
f 3/3/3 4/4/4 1/1/1 
f 3/5/3 2/6/2 5/7/5 
f 5/7/5 6/8/6 3/5/3 
f 2/9/2 1/10/1 7/4/7 
f 7/4/7 5/3/5 2/9/2 
f 7/7/7 1/6/1 4/5/4 
f 4/5/4 8/8/8 7/7/7 
f 8/1/8 6/2/6 5/3/5 
f 5/3/5 7/4/7 8/1/8 
# 10 faces

